<?xml version="1.0" encoding="UTF-8"?>
<svg id="Layer_2" data-name="Layer 2" xmlns="http://www.w3.org/2000/svg" viewBox="0 0 141.66 34.49">
  <defs>
    <style>
      .cls-1 {
        fill: #a98455;
      }
    </style>
  </defs>
  <g id="Layer_1-2" data-name="Layer 1">
    <g>
      <g>
        <path class="cls-1" d="M55.45,23.71c-2.45,0-4.29-.57-5.52-1.7-1.23-1.13-1.84-2.71-1.84-4.73v-.15c0-1.98.61-3.53,1.82-4.66s3.03-1.69,5.46-1.69c.63,0,1.21.04,1.75.12.54.08,1.05.19,1.51.33.46.14.89.31,1.28.51l.32,3.13c-.6-.25-1.24-.47-1.93-.65-.69-.18-1.47-.28-2.34-.28-1.31,0-2.28.28-2.89.85-.62.57-.93,1.34-.93,2.32v.15c0,.99.32,1.77.94,2.35.63.58,1.66.86,3.09.86.82,0,1.57-.09,2.26-.27.68-.18,1.32-.4,1.92-.63l-.32,3.2c-.38.18-.8.35-1.26.49-.46.15-.97.26-1.52.34-.55.08-1.15.12-1.78.12"/>
        <path class="cls-1" d="M66.22,23.28h-3.84v-12.09h3.84v12.09ZM64.33,20.24h8.97v3.05h-8.97v-3.05Z"/>
        <rect class="cls-1" x="78.8" y="11.2" width="2.11" height="12.09"/>
        <polygon class="cls-1" points="87.5 11.2 94.69 21.22 94.86 21.22 94.79 16.43 94.79 11.2 96.89 11.2 96.89 23.28 93.94 23.28 86.63 13.09 86.46 13.09 86.53 18.27 86.53 23.28 84.42 23.28 84.42 11.2 87.5 11.2"/>
        <path class="cls-1" d="M100.39,11.2h2.08v12.09h-2.08v-12.09ZM100.49,11.2h10.46v1.71h-10.46v-1.71ZM101.47,16.86h9.3v1.71h-9.3v-1.71Z"/>
        <path class="cls-1" d="M113.74,23.28v-12.09h2.07v12.09h-2.07ZM123.69,23.28l-.41-1.97c-.11-.54-.25-1-.43-1.36-.18-.37-.46-.65-.83-.84-.37-.19-.9-.28-1.58-.28h-5.28v-1.64h5.71c.92,0,1.59-.21,2.02-.6.43-.39.64-.91.64-1.55v-.1c0-.64-.21-1.14-.62-1.5-.41-.36-1.08-.55-2-.55h-5.75v-1.68h6c1.56,0,2.7.3,3.42.9.73.6,1.09,1.43,1.09,2.51v.13c0,.83-.22,1.49-.65,1.98-.43.48-1.11.79-2.03.92v.26l-1.07-.31c.82.04,1.46.19,1.91.46.45.27.79.64,1.03,1.13.23.48.42,1.07.57,1.76l.51,2.36h-2.24Z"/>
        <path class="cls-1" d="M127.34,23.28l5.59-12.09h3.18l5.55,12.09h-2.18l-4.81-10.76h-.3l-4.84,10.76h-2.18ZM130.62,18.23h7.77v1.7h-7.77v-1.7Z"/>
      </g>
      <g>
        <polygon class="cls-1" points="17.41 0 18.2 .53 18.2 5.95 17.41 5.46 17.41 0"/>
        <polygon class="cls-1" points="18.58 .79 19.48 1.4 19.48 6.76 18.58 6.19 18.58 .79"/>
        <polygon class="cls-1" points="19.86 1.66 20.77 2.27 20.77 7.57 19.86 7 19.86 1.66"/>
        <polygon class="cls-1" points="23.33 4.01 23.33 13.35 22.43 12.99 22.43 3.39 23.33 4.01"/>
        <polygon class="cls-1" points="24.61 4.86 24.61 13.87 23.72 13.51 23.72 4.26 24.61 4.86"/>
        <polygon class="cls-1" points="25.88 5.72 25.88 14.38 25 14.02 25 5.13 25.88 5.72"/>
        <path class="cls-1" d="M11.52,7.53v8.11c-.36.16-.67.3-.91.4v-7.89l.91-.62Z"/>
        <path class="cls-1" d="M12.8,6.64v8.45c-.32.14-.62.27-.91.39V7.27l.91-.63Z"/>
        <path class="cls-1" d="M14.08,5.76v8.77c-.3.13-.6.26-.91.38V6.38l.91-.62Z"/>
        <path class="cls-1" d="M15.37,4.87v9.11c-.27.12-.58.26-.91.39V5.5l.91-.62Z"/>
        <path class="cls-1" d="M16.71,3.99v9.43c-.27.12-.58.26-.91.39V4.61l.91-.62Z"/>
        <path class="cls-1" d="M37.09,32.06c-1.49,3.61-10.96,3.14-21.14-1.07C5.75,26.79-1.29,20.45.2,16.83c.91-2.19,4.77-2.88,9.94-2.13v.9c-3.87-.38-6.69.27-7.4,1.98-1.29,3.13,4.83,8.62,13.67,12.27,8.85,3.65,17.06,4.07,18.35.95.93-2.23-1.93-5.66-6.86-8.78v-.89c6.45,3.79,10.33,8.16,9.19,10.93"/>
        <path class="cls-1" d="M14.44,18.53v6.73l4.75-.47v3.83h-4.13c-2.65-1.21-4.96-2.6-6.78-3.99v-7l2.95-1.18,7.96-3.17v3.83l-2.07.62-2.69.8Z"/>
        <path class="cls-1" d="M33.65,28.62h-12.55v-15.34l6.16,2.43v9.68l4.64.42c.92.99,1.53,1.94,1.75,2.8"/>
        <polygon class="cls-1" points="22.05 3.14 22.05 12.84 21.15 12.47 21.15 2.53 22.05 3.14"/>
      </g>
    </g>
  </g>
</svg>